<?xml version="1.0" standalone="no"?>
<!DOCTYPE svg PUBLIC "-//W3C//DTD SVG 20010904//EN"
 "http://www.w3.org/TR/2001/REC-SVG-20010904/DTD/svg10.dtd">
<svg version="1.0" xmlns="http://www.w3.org/2000/svg"
 width="360.000000pt" height="360.000000pt" viewBox="0 0 360.000000 360.000000"
 preserveAspectRatio="xMidYMid meet">
<metadata>
Created by potrace 1.11, written by Peter Selinger 2001-2013
</metadata>
<g transform="translate(0.000000,360.000000) scale(0.100000,-0.100000)"
fill="#000000" stroke="none">
<path d="M0 1800 l0 -1800 1800 0 1800 0 0 1800 0 1800 -1800 0 -1800 0 0
-1800z m596 1122 c61 -31 107 -89 141 -178 16 -43 113 -307 214 -586 122 -338
186 -503 191 -493 5 8 107 269 228 581 121 312 230 582 241 599 41 59 128 104
204 105 93 0 188 -51 228 -123 13 -23 118 -295 233 -604 115 -309 211 -560
213 -557 2 2 93 250 203 551 237 655 215 599 257 646 89 98 224 113 343 38 68
-43 103 -108 103 -191 0 -60 -24 -129 -322 -950 -176 -487 -327 -902 -334
-923 -18 -52 -62 -102 -117 -135 -41 -23 -58 -27 -127 -27 -59 0 -90 5 -120
20 -53 26 -111 88 -125 133 -7 20 -107 291 -223 601 -148 398 -213 558 -218
545 -4 -11 -99 -258 -211 -549 -113 -292 -213 -553 -222 -582 -43 -131 -196
-204 -333 -159 -56 19 -117 65 -138 105 -7 15 -163 439 -347 942 -310 852
-333 918 -333 980 0 56 5 73 30 114 33 54 90 98 145 114 52 15 150 7 196 -17z"/>
</g>
</svg>
